<?xml version="1.0" encoding="utf-8"?>
<!-- Generator: Adobe Illustrator 21.1.0, SVG Export Plug-In . SVG Version: 6.00 Build 0)  -->
<svg version="1.1" id="layer" xmlns="http://www.w3.org/2000/svg" xmlns:xlink="http://www.w3.org/1999/xlink" x="0px" y="0px"
	 viewBox="0 0 652 652" style="enable-background:new 0 0 652 652;" xml:space="preserve">
<style type="text/css">
	.st0{fill:#004479;}
</style>
<g>
	<path class="st0" d="M262.1,349.9h-28.3v-2.1h27.4c-0.7-1.7-1.4-3.5-1.9-5.3h-25.4V333h23.6c-0.1-1.2-0.2-2.4-0.2-3.6H234v-2.1
		h23.3c0-1.8,0.1-3.6,0.3-5.3H234v-9.5h25.4c0.4-1.2,0.8-2.4,1.2-3.6h-26.7v-2.1h27.5c0.8-1.9,1.7-3.6,2.7-5.3H223v52h41.1
		C263.4,352.4,262.7,351.2,262.1,349.9"/>
	<polygon class="st0" points="190.4,342.5 190.4,301.5 186.8,301.5 186.8,342.5 184.8,342.5 184.8,301.5 179.4,301.5 179.4,353.5 
		217.2,353.5 217.1,342.5 	"/>
	<polygon class="st0" points="131.7,353.5 166.7,301.5 160.3,301.5 148.4,319.1 136.5,301.5 122.9,301.5 141.8,328.9 125.2,353.5 	
		"/>
	<polygon class="st0" points="169.3,301.5 134.2,353.5 138.4,353.5 173.6,301.5 	"/>
	<path class="st0" d="M115.2,349.9H86.9v-2.1h27.4c-0.7-1.7-1.4-3.5-1.9-5.3H87V333h23.6c-0.1-1.2-0.2-2.4-0.2-3.6H86.9v-2.1h23.3
		c0-1.8,0.1-3.6,0.3-5.3H86.9v-9.5h25.4c0.4-1.2,0.8-2.4,1.2-3.6H86.9v-2.1h27.5c0.8-1.9,1.7-3.6,2.7-5.3H76v52h41.1
		C116.5,352.4,115.8,351.2,115.2,349.9"/>
	<polygon class="st0" points="56.9,301.5 42.6,322.8 28.3,301.5 15,301.5 15,353.5 26,353.5 26,318.1 39.2,337.6 63.5,301.5 	"/>
	<polygon class="st0" points="70.2,353.5 70.2,301.5 66,301.5 40.5,339.5 42.6,342.6 59.2,318.1 59.2,353.5 	"/>
</g>
<g>
	<path class="st0" d="M348.7,316.9c2.6,0,3.8,1.2,3.8,3.8v11.5c0,2.6-1.2,3.8-3.8,3.8h-10.5v-19.2h10.5V316.9z M348.1,332.5
		c0.4,0,0.5-0.1,0.5-0.5v-11c0-0.4-0.1-0.5-0.5-0.5h-5.9v12H348.1z"/>
	<path class="st0" d="M367.1,336.1l-3.2-6.8h-3.2v6.8h-4v-19.2h10.1c2.6,0,3.8,1.2,3.8,3.8v4.6c0,2.2-0.9,3.4-2.7,3.7l3.3,7h-4.1
		V336.1z M366.2,325.8c0.4,0,0.5-0.1,0.5-0.5V321c0-0.4-0.1-0.5-0.5-0.5h-5.5v5.4h5.5V325.8z"/>
	<rect x="374.8" y="316.9" class="st0" width="4" height="19.2"/>
	<polygon class="st0" points="392.3,336.1 387.7,336.1 381.7,316.9 386.1,316.9 390,331.7 394,316.9 398.2,316.9 	"/>
	<polygon class="st0" points="414.1,316.9 414.1,320.5 405.1,320.5 405.1,324.5 412.4,324.5 412.4,328 405.1,328 405.1,332.5 
		414.1,332.5 414.1,336.1 401.2,336.1 401.2,316.9 	"/>
	<path class="st0" d="M428.2,336.1l-3.2-6.8h-3.2v6.8h-4v-19.2H428c2.6,0,3.8,1.2,3.8,3.8v4.6c0,2.2-0.9,3.4-2.7,3.7l3.3,7h-4.2
		V336.1z M427.3,325.8c0.4,0,0.5-0.1,0.5-0.5V321c0-0.4-0.1-0.5-0.5-0.5h-5.5v5.4h5.5V325.8z"/>
	<path class="st0" d="M439.3,319.8c0,1.1-0.4,1.8-1.3,2.9l-1.9,2.1h-1.5l2.1-3.7h-1.8v-4.3h4.4L439.3,319.8L439.3,319.8z"/>
	<path class="st0" d="M451.9,321c0-0.4-0.1-0.5-0.5-0.5h-4.7c-0.4,0-0.5,0.1-0.5,0.5v2.1c0,0.6,0.2,0.8,0.9,0.9l5.1,1.1
		c2.4,0.5,4,1.5,4,4v3.2c0,2.6-1.2,3.8-3.8,3.8h-6.3c-2.6,0-3.8-1.2-3.8-3.8v-2.4h3.8v2.1c0,0.4,0.1,0.5,0.5,0.5h5.1
		c0.4,0,0.5-0.1,0.5-0.5v-2.3c0-0.6-0.2-0.8-0.9-0.9l-5.1-1.1c-2.4-0.5-4-1.5-4-4v-3c0-2.6,1.2-3.8,3.8-3.8h5.9
		c2.6,0,3.8,1.2,3.8,3.8v2.2h-3.8V321z"/>
	<path class="st0" d="M476.7,316.9c2.6,0,3.8,1.2,3.8,5.1c0,2.6-0.5,3.6-1.7,4.3c1.4,0.6,2,1.7,2,4.5c0,4.1-1.2,5.4-3.8,5.4h-10.3
		V317L476.7,316.9L476.7,316.9z M476.1,324.6c0.4,0,0.5-0.1,0.5-2.1c0-1.9-0.1-2.1-0.5-2.1h-5.4v4.1h5.4V324.6z M476.3,332.5
		c0.4,0,0.5-0.1,0.5-2.3c0-2.1-0.1-2.3-0.5-2.3h-5.7v4.6L476.3,332.5L476.3,332.5z"/>
	<polygon class="st0" points="497.5,316.9 497.5,320.5 488.5,320.5 488.5,324.5 495.8,324.5 495.8,328 488.5,328 488.5,332.5 
		497.5,332.5 497.5,336.1 484.6,336.1 484.6,316.9 	"/>
	<path class="st0" d="M510.3,321c0-0.4-0.1-0.5-0.5-0.5H505c-0.4,0-0.5,0.1-0.5,0.5v2.1c0,0.6,0.2,0.8,0.9,0.9l5.1,1.1
		c2.4,0.5,4,1.5,4,4v3.2c0,2.6-1.2,3.8-3.8,3.8h-6.3c-2.6,0-3.8-1.2-3.8-3.8v-2.4h3.8v2.1c0,0.4,0.1,0.5,0.5,0.5h5.1
		c0.4,0,0.5-0.1,0.5-0.5v-2.3c0-0.6-0.2-0.8-0.9-0.9l-5.1-1.1c-2.4-0.5-4-1.5-4-4v-3c0-2.6,1.2-3.8,3.8-3.8h5.9
		c2.6,0,3.8,1.2,3.8,3.8v2.2h-3.8L510.3,321L510.3,321z"/>
	<polygon class="st0" points="525.9,320.4 525.9,336.1 522,336.1 522,320.4 516.8,320.4 516.8,316.9 531.2,316.9 531.2,320.4 	"/>
	<polygon class="st0" points="540.2,316.9 553.2,316.9 553.2,320.5 544.2,320.5 544.2,324.6 551.5,324.6 551.5,328.2 544.2,328.2 
		544.2,336.1 540.2,336.1 	"/>
	<path class="st0" d="M566.8,336.1l-3.2-6.8h-3.2v6.8h-4v-19.2h10.1c2.6,0,3.8,1.2,3.8,3.8v4.6c0,2.2-0.9,3.4-2.7,3.7l3.3,7h-4.1
		V336.1z M565.9,325.8c0.4,0,0.5-0.1,0.5-0.5V321c0-0.4-0.1-0.5-0.5-0.5h-5.5v5.4h5.5V325.8z"/>
	<rect x="574.6" y="316.9" class="st0" width="4" height="19.2"/>
	<polygon class="st0" points="596.1,316.9 596.1,320.5 587.1,320.5 587.1,324.5 594.4,324.5 594.4,328 587.1,328 587.1,332.5 
		596.1,332.5 596.1,336.1 583.1,336.1 583.1,316.9 	"/>
	<polygon class="st0" points="615.1,316.9 615.1,336.1 611.2,336.1 603.7,323.3 603.7,336.1 599.8,336.1 599.8,316.9 603.9,316.9 
		611.2,329.2 611.2,316.9 	"/>
	<path class="st0" d="M630.2,316.9c2.6,0,3.8,1.2,3.8,3.8v11.5c0,2.6-1.2,3.8-3.8,3.8h-10.5v-19.2h10.5V316.9z M629.5,332.5
		c0.4,0,0.5-0.1,0.5-0.5v-11c0-0.4-0.1-0.5-0.5-0.5h-5.9v12H629.5z"/>
</g>
<g>
	<path class="st0" d="M262.1,349.1h-28.3V347h27.4c-0.7-1.7-1.4-3.5-1.9-5.3h-25.4v-9.6h23.6c-0.1-1.2-0.2-2.4-0.2-3.6H234v-2.1
		h23.3c0-1.8,0.1-3.6,0.3-5.3H234v-9.5h25.4c0.4-1.2,0.8-2.4,1.2-3.6h-26.7v-2.1h27.5c0.8-1.9,1.7-3.6,2.7-5.3H223v52h41.1
		C263.4,351.5,262.7,350.3,262.1,349.1"/>
	<polygon class="st0" points="190.4,341.7 190.4,300.6 186.8,300.6 186.8,341.7 184.8,341.7 184.8,300.6 179.4,300.6 179.4,352.6 
		217.2,352.6 217.1,341.7 	"/>
	<polygon class="st0" points="131.7,352.6 166.7,300.6 160.3,300.6 148.4,318.2 136.5,300.6 122.9,300.6 141.8,328 125.2,352.6 	"/>
	<polygon class="st0" points="169.3,300.6 134.2,352.6 138.4,352.7 173.6,300.6 	"/>
	<path class="st0" d="M115.2,349.1H86.9V347h27.4c-0.7-1.7-1.4-3.5-1.9-5.3H87v-9.6h23.6c-0.1-1.2-0.2-2.4-0.2-3.6H86.9v-2.1h23.3
		c0-1.8,0.1-3.6,0.3-5.3H86.9v-9.5h25.4c0.4-1.2,0.8-2.4,1.2-3.6H86.9v-2.1h27.5c0.8-1.9,1.7-3.6,2.7-5.3H76v52h41.1
		C116.5,351.5,115.8,350.3,115.2,349.1"/>
	<polygon class="st0" points="56.9,300.6 42.6,321.9 28.3,300.6 15,300.6 15,352.6 26,352.6 26,317.2 39.2,336.7 63.5,300.6 	"/>
	<polygon class="st0" points="70.2,352.6 70.2,300.6 66,300.6 40.5,338.6 42.6,341.8 59.2,317.2 59.2,352.6 	"/>
</g>
<g>
	<path class="st0" d="M348.7,316c2.6,0,3.8,1.2,3.8,3.8v11.5c0,2.6-1.2,3.8-3.8,3.8h-10.5V316H348.7z M348.1,331.6
		c0.4,0,0.5-0.1,0.5-0.5v-10.9c0-0.4-0.1-0.5-0.5-0.5h-5.9v12h5.9V331.6z"/>
	<path class="st0" d="M367.1,335.2l-3.2-6.8h-3.2v6.8h-4V316h10.1c2.6,0,3.8,1.2,3.8,3.8v4.6c0,2.2-0.9,3.4-2.7,3.7l3.3,7h-4.1
		V335.2z M366.2,324.9c0.4,0,0.5-0.1,0.5-0.5v-4.3c0-0.4-0.1-0.5-0.5-0.5h-5.5v5.4h5.5V324.9z"/>
	<rect x="374.8" y="316" class="st0" width="4" height="19.2"/>
	<polygon class="st0" points="392.3,335.2 387.7,335.2 381.7,316 386.1,316 390,330.8 394,316 398.2,316 	"/>
	<polygon class="st0" points="414.1,316 414.1,319.6 405.1,319.6 405.1,323.6 412.4,323.6 412.4,327.2 405.1,327.2 405.1,331.6 
		414.1,331.6 414.1,335.2 401.2,335.2 401.2,316 	"/>
	<path class="st0" d="M428.2,335.2l-3.2-6.8h-3.2v6.8h-4V316H428c2.6,0,3.8,1.2,3.8,3.8v4.6c0,2.2-0.9,3.4-2.7,3.7l3.3,7h-4.2V335.2
		z M427.3,324.9c0.4,0,0.5-0.1,0.5-0.5v-4.3c0-0.4-0.1-0.5-0.5-0.5h-5.5v5.4h5.5V324.9z"/>
	<path class="st0" d="M439.3,319c0,1.1-0.4,1.8-1.3,2.9l-1.9,2.1h-1.5l2.1-3.7h-1.8V316h4.4L439.3,319L439.3,319z"/>
	<path class="st0" d="M451.9,320.1c0-0.4-0.1-0.5-0.5-0.5h-4.7c-0.4,0-0.5,0.1-0.5,0.5v2.1c0,0.6,0.2,0.8,0.9,0.9l5.1,1.1
		c2.4,0.5,4,1.5,4,4v3.2c0,2.6-1.2,3.8-3.8,3.8h-6.3c-2.6,0-3.8-1.2-3.8-3.8V329h3.8v2.1c0,0.4,0.1,0.5,0.5,0.5h5.1
		c0.4,0,0.5-0.1,0.5-0.5v-2.3c0-0.6-0.2-0.8-0.9-0.9l-5.1-1.1c-2.4-0.5-4-1.5-4-4v-3c0-2.6,1.2-3.8,3.8-3.8h5.9
		c2.6,0,3.8,1.2,3.8,3.8v2.2h-3.8V320.1z"/>
	<path class="st0" d="M476.7,316c2.6,0,3.8,1.2,3.8,5.1c0,2.6-0.5,3.6-1.7,4.3c1.4,0.6,2,1.7,2,4.5c0,4.1-1.2,5.4-3.8,5.4h-10.3V316
		H476.7z M476.1,323.7c0.4,0,0.5-0.1,0.5-2.1c0-1.9-0.1-2.1-0.5-2.1h-5.4v4.1h5.4V323.7z M476.3,331.6c0.4,0,0.5-0.1,0.5-2.3
		s-0.1-2.3-0.5-2.3h-5.7v4.6L476.3,331.6L476.3,331.6z"/>
	<polygon class="st0" points="497.5,316 497.5,319.6 488.5,319.6 488.5,323.6 495.8,323.6 495.8,327.2 488.5,327.2 488.5,331.6 
		497.5,331.6 497.5,335.2 484.6,335.2 484.6,316 	"/>
	<path class="st0" d="M510.3,320.1c0-0.4-0.1-0.5-0.5-0.5H505c-0.4,0-0.5,0.1-0.5,0.5v2.1c0,0.6,0.2,0.8,0.9,0.9l5.1,1.1
		c2.4,0.5,4,1.5,4,4v3.2c0,2.6-1.2,3.8-3.8,3.8h-6.3c-2.6,0-3.8-1.2-3.8-3.8V329h3.8v2.1c0,0.4,0.1,0.5,0.5,0.5h5.1
		c0.4,0,0.5-0.1,0.5-0.5v-2.3c0-0.6-0.2-0.8-0.9-0.9l-5.1-1.1c-2.4-0.5-4-1.5-4-4v-3c0-2.6,1.2-3.8,3.8-3.8h5.9
		c2.6,0,3.8,1.2,3.8,3.8v2.2h-3.8L510.3,320.1L510.3,320.1z"/>
	<polygon class="st0" points="525.9,319.6 525.9,335.2 522,335.2 522,319.6 516.8,319.6 516.8,316 531.2,316 531.2,319.6 	"/>
	<polygon class="st0" points="540.2,316 553.2,316 553.2,319.6 544.2,319.6 544.2,323.8 551.5,323.8 551.5,327.3 544.2,327.3 
		544.2,335.2 540.2,335.2 	"/>
	<path class="st0" d="M566.8,335.2l-3.2-6.8h-3.2v6.8h-4V316h10.1c2.6,0,3.8,1.2,3.8,3.8v4.6c0,2.2-0.9,3.4-2.7,3.7l3.3,7h-4.1
		V335.2z M565.9,324.9c0.4,0,0.5-0.1,0.5-0.5v-4.3c0-0.4-0.1-0.5-0.5-0.5h-5.5v5.4h5.5V324.9z"/>
	<rect x="574.6" y="316" class="st0" width="4" height="19.2"/>
	<polygon class="st0" points="596.1,316 596.1,319.6 587.1,319.6 587.1,323.6 594.4,323.6 594.4,327.2 587.1,327.2 587.1,331.6 
		596.1,331.6 596.1,335.2 583.1,335.2 583.1,316 	"/>
	<polygon class="st0" points="615.1,316 615.1,335.2 611.2,335.2 603.7,322.4 603.7,335.2 599.8,335.2 599.8,316 603.9,316 
		611.2,328.4 611.2,316 	"/>
	<path class="st0" d="M630.2,316c2.6,0,3.8,1.2,3.8,3.8v11.5c0,2.6-1.2,3.8-3.8,3.8h-10.5V316H630.2z M629.5,331.6
		c0.4,0,0.5-0.1,0.5-0.5v-10.9c0-0.4-0.1-0.5-0.5-0.5h-5.9v12h5.9V331.6z"/>
</g>
</svg>
